# xmcd
#
# Track frame offsets:
#  150
#  10218
#  39517
#  47762
#  68848
#  77459
#  85916
#  97671
#  120068
#  129162
#  139890
#  153127
#
# Disc length: 2231 seconds
#
# Revision: 0
# Processed by: cddbd v1.5.1PL0 Copyright (c) Steve Scherf et al.
# Submitted via: Collectorz.com Music Collector 6.9
#
DISCID=7e08b50c
DTITLE=Rob Hoeke and Hein van der Gaag - Four Hands Up
DYEAR=1971
DGENRE=Boogie-Woogie
TTITLE0=Milkmen Blues
TTITLE1=Small Talk To My Son
TTITLE2=Answer Boogie
TTITLE3=Try To Think It Over
TTITLE4=Berry's Hounddog
TTITLE5=Hersal Boogie
TTITLE6=Harry Lime Theme
TTITLE7=Ain't Tellin' Lies
TTITLE8=Blues On The Down Beat
TTITLE9=Dedicated To Weromeri
TTITLE10=Blues For Stella
TTITLE11=Cuban Boogie
EXTD=
EXTT0=
EXTT1=
EXTT2=
EXTT3=
EXTT4=
EXTT5=
EXTT6=
EXTT7=
EXTT8=
EXTT9=
EXTT10=
EXTT11=
PLAYORDER=
